<svg xmlns="http://www.w3.org/2000/svg" xmlns:xlink="http://www.w3.org/1999/xlink" viewBox="0,0,256,256" width="32px" height="32px" fill-rule="nonzero"><g fill-opacity="0" fill="#dddddd" fill-rule="nonzero" stroke="none" stroke-width="1" stroke-linecap="butt" stroke-linejoin="miter" stroke-miterlimit="10" stroke-dasharray="" stroke-dashoffset="0" font-family="none" font-weight="none" font-size="none" text-anchor="none" style="mix-blend-mode: normal"><path d="M0,256v-256h256v256z" id="bgRectangle"></path></g><g fill="#ffffff" fill-rule="nonzero" stroke="none" stroke-width="1" stroke-linecap="butt" stroke-linejoin="miter" stroke-miterlimit="10" stroke-dasharray="" stroke-dashoffset="0" font-family="none" font-weight="none" font-size="none" text-anchor="none" style="mix-blend-mode: normal"><g transform="scale(4,4)"><path d="M32,10c-12.15,0 -22,9.85 -22,22c0,12.15 9.85,22 22,22c12.15,0 22,-9.85 22,-22c0,-12.15 -9.85,-22 -22,-22zM32,14c9.941,0 18,8.059 18,18c0,9.941 -8.059,18 -18,18c-1.64533,0 -3.23188,-0.23882 -4.74609,-0.65234c0.47786,-0.98152 0.94637,-2.05564 1.15625,-2.86328c0.254,-0.978 1.30273,-4.9668 1.30273,-4.9668c0.682,1.299 2.67206,2.39844 4.78906,2.39844c6.301,0 10.8418,-5.79414 10.8418,-12.99414c0,-6.902 -5.63286,-12.06836 -12.88086,-12.06836c-9.017,0 -13.80469,6.05258 -13.80469,12.64258c0,3.064 1.63123,6.8807 4.24023,8.0957c0.396,0.185 0.60822,0.1027 0.69922,-0.2793c0.069,-0.29 0.42108,-1.70914 0.58008,-2.36914c0.051,-0.211 0.02647,-0.39261 -0.14453,-0.59961c-0.863,-1.047 -1.55469,-2.97158 -1.55469,-4.76758c0,-4.608 3.48859,-9.06641 9.43359,-9.06641c5.133,0 8.72656,3.498 8.72656,8.5c0,5.652 -2.85536,9.56641 -6.56836,9.56641c-2.051,0 -3.58575,-1.69639 -3.09375,-3.77539c0.589,-2.483 1.73047,-5.16208 1.73047,-6.95508c0,-1.605 -0.86058,-2.94336 -2.64258,-2.94336c-2.096,0 -3.78125,2.16922 -3.78125,5.07422c0,1.85 0.625,3.10156 0.625,3.10156c0,0 -2.06922,8.75377 -2.44922,10.38477c-0.16909,0.72599 -0.21544,1.7602 -0.2207,2.75977c-6.05001,-2.90071 -10.23828,-9.06514 -10.23828,-16.22266c0,-9.941 8.059,-18 18,-18z"></path></g></g></svg>